<?xml version="1.0" standalone="no"?>
<!DOCTYPE svg PUBLIC "-//W3C//DTD SVG 20010904//EN"
 "http://www.w3.org/TR/2001/REC-SVG-20010904/DTD/svg10.dtd">
<svg version="1.0" xmlns="http://www.w3.org/2000/svg"
 width="500.000000pt" height="500.000000pt" viewBox="0 0 500.000000 500.000000"
 preserveAspectRatio="xMidYMid meet">

<g transform="translate(0.000000,500.000000) scale(0.100000,-0.100000)"
fill="#000000" stroke="none">
<path d="M1575 4241 c-51 -24 -89 -64 -114 -122 -20 -45 -21 -64 -21 -927 -1
-876 -1 -881 20 -930 25 -59 70 -105 124 -127 35 -15 124 -17 889 -15 549 0
867 4 899 11 73 16 138 64 173 129 l30 55 3 882 c2 857 2 884 -17 920 -25 49
-76 97 -126 120 -37 17 -97 18 -930 20 -851 3 -892 2 -930 -16z m621 -106 c17
-44 -53 -137 -117 -155 -18 -6 -118 -10 -221 -10 -202 0 -218 -4 -218 -55 0
-51 24 -55 259 -48 182 5 222 9 253 24 79 40 148 141 148 218 l0 41 263 -2
262 -3 -2 -33 c-2 -59 -54 -97 -147 -108 l-56 -7 0 30 c0 35 -16 53 -46 53
-44 0 -48 -17 -45 -243 3 -229 7 -253 57 -298 48 -44 82 -49 305 -49 l208 0
35 30 c65 57 73 90 81 321 5 183 4 208 -10 223 -35 35 -85 5 -85 -51 0 -18 -2
-33 -5 -33 -23 0 -136 47 -162 66 -28 21 -33 32 -33 65 l0 39 223 0 c242 0
269 -5 309 -60 18 -24 18 -65 18 -885 0 -974 5 -909 -80 -952 -39 -20 -59 -23
-172 -23 l-128 0 0 290 c0 316 -1 321 -59 383 -119 129 -324 74 -370 -98 -7
-24 -11 -148 -11 -307 l0 -268 -92 0 c-51 0 -123 -3 -159 -6 l-66 -7 -7 38
c-13 70 -38 115 -86 158 -51 46 -90 61 -182 72 l-58 7 1 62 c1 82 6 90 58 94
70 4 127 44 150 105 14 37 15 422 1 448 -7 12 -21 19 -40 19 -19 0 -33 -7 -40
-19 -6 -12 -10 -101 -10 -219 0 -184 -1 -200 -19 -216 -11 -10 -35 -19 -53
-19 l-33 -2 -3 110 c-2 61 0 192 3 293 l7 182 63 0 c72 0 109 11 144 43 57 52
78 167 45 245 -21 51 -71 100 -114 112 -19 5 -137 10 -261 10 -246 0 -261 -3
-261 -55 0 -52 14 -55 267 -55 227 0 232 0 252 -22 11 -13 23 -36 27 -52 9
-36 -10 -93 -34 -106 -11 -6 -114 -10 -245 -10 -137 0 -234 -4 -246 -10 -27
-15 -25 -64 3 -84 17 -12 49 -16 135 -16 l112 0 -5 -377 c-3 -208 -7 -397 -10
-420 -5 -40 -7 -43 -35 -43 -20 0 -40 10 -60 29 l-29 29 0 321 c0 347 -1 351
-55 351 -55 0 -55 -3 -55 -367 l0 -336 24 -41 c14 -24 42 -51 68 -66 39 -22
58 -25 198 -31 170 -6 202 -16 240 -69 12 -16 22 -42 23 -57 l2 -28 -285 -3
c-268 -2 -287 -1 -317 18 -18 10 -40 34 -50 52 -17 31 -18 86 -21 876 -2 591
1 855 9 884 6 23 23 54 39 70 l28 28 287 0 c241 0 287 -2 291 -15z m817 -224
c32 -11 69 -21 82 -21 14 0 25 -5 25 -11 0 -9 -25 -10 -92 -5 -50 3 -162 6
-250 6 -154 0 -206 11 -110 24 70 9 145 35 178 61 l29 23 40 -28 c22 -15 66
-37 98 -49z m105 -153 c3 -17 -14 -18 -242 -18 -240 0 -246 0 -246 20 0 20 5
20 242 18 222 -3 243 -4 246 -20z m-19 -124 c3 -2 -6 -16 -20 -30 l-24 -26
-195 6 c-158 6 -198 10 -212 23 -10 9 -18 23 -18 30 0 13 34 14 233 8 127 -4
234 -9 236 -11z m-152 -786 c50 -46 53 -64 53 -271 0 -107 -3 -229 -6 -271
l-7 -77 -119 3 -120 3 1 270 c2 237 4 274 20 305 35 69 125 88 178 38z"/>
<path d="M3291 3601 c-18 -18 -31 -54 -46 -123 l-5 -28 -373 0 -373 0 -19 62
c-23 72 -59 107 -93 89 -31 -16 -33 -36 -9 -88 30 -65 29 -230 -2 -347 -26
-98 -26 -113 -1 -126 34 -18 58 -3 78 53 l20 52 53 6 c65 8 101 21 152 56 39
27 87 97 87 126 0 15 14 17 105 17 l104 0 10 -35 c24 -88 110 -145 224 -148
l64 -2 19 -53 c21 -64 56 -97 86 -81 31 17 32 35 3 122 -36 106 -47 298 -21
361 21 51 20 83 -3 96 -28 14 -38 13 -60 -9z m-630 -269 c-22 -41 -92 -82
-141 -82 -29 0 -30 1 -30 50 l0 50 90 0 c84 0 90 -1 81 -18z m579 4 c0 -7 3
-28 6 -45 6 -29 5 -31 -23 -31 -56 0 -93 12 -123 40 -47 44 -40 50 55 50 65 0
85 -3 85 -14z"/>
<path d="M2760 3164 c-151 -41 -278 -173 -309 -322 -6 -29 -11 -136 -11 -237
l0 -185 25 -16 c23 -15 27 -15 49 0 24 15 24 16 28 228 3 208 4 214 30 263 32
62 104 130 166 158 70 31 182 35 252 8 78 -29 124 -71 162 -148 l33 -67 5
-215 5 -216 29 -10 c24 -8 31 -6 47 14 37 45 21 422 -22 521 -81 185 -285 279
-489 224z"/>
<path d="M1210 1902 c-19 -15 -21 -22 -11 -40 14 -26 15 -92 1 -92 -5 0 -10
15 -10 33 0 38 -15 57 -45 57 -33 0 -35 -9 -14 -43 24 -41 24 -47 -3 -47 -50
0 -69 -11 -66 -38 4 -34 32 -51 58 -34 41 25 48 1 12 -40 -14 -16 -13 -18 5
-18 11 0 32 11 47 25 22 21 26 22 26 6 0 -9 -6 -24 -12 -33 -14 -18 -121 -43
-138 -33 -5 3 -15 -6 -20 -21 -8 -21 -8 -31 3 -42 13 -12 19 -12 45 2 28 15
30 14 35 -4 3 -13 14 -20 29 -20 12 0 30 -5 38 -10 12 -7 6 -13 -24 -25 -22
-9 -47 -14 -58 -12 -21 6 -24 -3 -6 -21 18 -18 64 -15 107 7 l38 20 53 -34
c29 -19 57 -32 62 -29 17 11 7 37 -26 66 l-34 30 22 33 c15 24 30 34 51 37 22
2 31 9 33 26 3 19 -1 22 -32 22 -19 0 -46 4 -60 10 -17 6 -26 6 -26 0 0 -6 -7
-10 -15 -10 -16 0 -18 30 -6 85 l6 30 13 -43 c10 -32 18 -42 30 -40 23 4 27
42 7 61 -15 15 -13 16 19 15 36 -1 70 17 60 33 -3 5 -23 9 -45 9 l-41 0 26 31
c21 24 24 34 15 45 -21 25 -46 16 -63 -23 l-16 -38 6 52 c6 50 5 53 -21 63
-33 13 -29 13 -55 -8z m70 -320 c0 -21 -38 -43 -64 -36 -39 9 -41 22 -4 33 43
12 68 13 68 3z"/>
<path d="M2082 1909 c-29 -11 -35 -29 -23 -63 l11 -27 -71 2 c-53 1 -74 -2
-87 -14 -14 -15 -14 -18 2 -36 14 -15 19 -38 20 -91 1 -40 -2 -74 -7 -77 -4
-3 -29 -8 -55 -12 l-47 -7 2 -38 c1 -22 8 -43 15 -47 21 -14 54 -10 69 7 15
19 62 44 103 55 27 7 29 7 14 -5 -10 -7 -18 -17 -18 -23 0 -5 -18 -27 -40 -48
-44 -43 -50 -78 -15 -83 21 -3 123 67 139 95 7 12 2 22 -19 40 -41 36 -22 45
87 45 72 0 117 -7 202 -31 124 -34 142 -32 178 27 l20 32 -74 0 c-41 0 -77 3
-81 6 -3 4 0 19 8 35 8 15 15 36 15 46 0 10 7 31 15 47 31 60 -13 102 -95 91
-53 -7 -56 -5 -39 27 10 18 8 25 -11 40 -39 32 -83 20 -86 -22 -1 -8 -2 -25
-3 -37 -1 -18 -7 -23 -30 -23 -27 0 -30 3 -33 36 -4 44 -32 67 -66 53z m122
-137 c7 -12 -7 -29 -31 -36 -19 -6 -23 -4 -23 13 0 17 11 25 42 30 4 0 9 -3
12 -7z m141 -22 c0 -10 -12 -16 -32 -18 -28 -3 -33 0 -33 18 0 18 5 21 33 18
20 -2 32 -8 32 -18z m-275 -10 c0 -14 -7 -20 -24 -20 -23 0 -41 22 -29 34 4 3
17 6 30 6 16 0 23 -6 23 -20z m118 -77 c-3 -31 -34 -44 -44 -19 -7 19 12 46
33 46 10 0 13 -9 11 -27z m130 18 c8 -5 12 -17 10 -27 -4 -24 -78 -34 -78 -10
0 42 33 60 68 37z m-238 -15 c0 -2 3 -11 6 -20 5 -13 -1 -16 -30 -16 -34 0
-47 15 -29 33 7 8 53 10 53 3z"/>
<path d="M2972 1898 c-6 -8 -7 -32 -3 -60 l8 -48 -79 0 -78 0 0 -34 0 -34 -37
9 c-21 5 -59 6 -84 3 -42 -6 -45 -8 -41 -30 7 -37 28 -50 63 -37 30 12 30 11
24 -17 -4 -16 -1 -37 6 -48 17 -27 4 -42 -67 -83 -58 -33 -65 -46 -35 -73 19
-17 22 -17 66 15 38 28 54 33 93 31 57 -2 156 -24 280 -63 51 -16 102 -29 115
-28 23 0 128 66 134 84 2 7 -39 10 -114 10 -67 0 -136 5 -160 13 -41 12 -41
13 -32 44 5 18 12 68 15 111 4 43 10 79 13 81 3 2 40 -5 81 -15 99 -24 101
-23 138 54 2 4 -22 4 -53 1 -57 -7 -57 -7 -45 16 19 35 -1 70 -40 70 -33 0
-34 -1 -21 -48 10 -32 9 -32 -26 -32 l-36 0 7 46 c4 29 2 52 -5 60 -14 17 -73
18 -87 2z m8 -269 l0 -102 -67 6 c-38 4 -79 7 -92 7 -19 0 -21 3 -11 15 12 15
5 55 -11 55 -20 0 -7 30 21 50 22 16 28 25 21 34 -8 9 -1 12 26 13 l35 1 -6
-41 c-4 -23 -9 -52 -13 -64 -6 -26 12 -30 37 -10 22 17 44 90 35 116 -5 15 -2
21 9 21 14 0 16 -16 16 -101z"/>
<path d="M3590 1900 c0 -6 -27 -10 -60 -10 -65 0 -85 -15 -60 -45 10 -12 24
-14 61 -9 45 6 49 5 49 -13 0 -21 -32 -33 -87 -33 -13 0 -33 -5 -44 -10 -17
-10 -18 -13 -4 -26 20 -21 19 -41 -4 -53 -13 -7 -17 -18 -13 -36 4 -22 9 -26
34 -23 45 5 36 -16 -11 -25 -30 -6 -41 -13 -41 -27 0 -23 26 -33 50 -20 25 13
30 13 30 -4 0 -9 -15 -17 -40 -21 -47 -8 -58 -21 -37 -42 17 -18 40 -12 125
31 45 23 54 36 22 36 -26 0 -26 18 0 22 26 4 27 20 4 33 -10 6 -24 15 -31 22
-11 10 -9 14 12 19 18 4 32 1 43 -10 14 -14 15 -23 5 -71 -16 -74 -42 -108
-104 -134 -28 -12 -48 -25 -45 -28 9 -9 128 17 158 35 26 15 54 71 60 122 2
14 9 25 18 25 11 0 16 -14 18 -50 2 -32 9 -55 19 -62 15 -12 14 -13 -9 -13
-65 0 -100 -39 -63 -70 15 -12 55 -5 55 10 0 16 76 33 150 34 55 0 93 -6 141
-23 l67 -24 36 22 c20 13 36 26 36 30 0 12 -71 20 -239 29 l-146 7 125 5 124
5 18 49 c13 37 14 53 6 63 -8 10 -6 13 10 13 12 0 38 11 58 25 l37 25 -49 0
c-27 0 -58 3 -70 6 l-21 5 21 60 21 61 -21 17 -22 18 35 18 35 19 -28 8 c-15
4 -91 8 -168 9 -122 1 -141 -1 -153 -16 -7 -11 -9 -24 -4 -34 4 -9 7 -47 6
-84 -1 -52 2 -70 14 -77 13 -8 12 -9 -6 -10 -12 0 -28 -3 -37 -6 -10 -4 -16
-1 -16 10 0 23 -33 36 -94 36 -41 0 -56 4 -56 14 0 9 19 16 61 20 43 5 62 12
66 24 4 9 15 29 26 43 12 16 17 34 13 46 -10 30 -86 59 -86 33z m335 -39 l40
-8 -45 -6 c-91 -12 -184 -18 -176 -10 25 26 113 37 181 24z m21 -59 c-5 -8
-66 -4 -66 4 0 2 16 4 36 4 19 0 33 -4 30 -8z m-120 -11 c-8 -12 -55 -20 -61
-11 -6 10 12 18 43 19 13 1 21 -3 18 -8z m114 -41 c0 -5 -16 -10 -36 -10 -21
0 -33 4 -29 10 3 6 19 10 36 10 16 0 29 -4 29 -10z m-125 -10 c-28 -12 -57
-12 -50 0 3 6 21 10 38 9 27 0 29 -2 12 -9z m134 -46 c2 -2 -34 -3 -80 -2 -68
1 -75 2 -39 7 43 6 110 3 119 -5z m-59 -54 c-88 -15 -165 -22 -158 -15 13 13
72 23 138 23 62 0 63 -1 20 -8z m56 -47 c-4 -4 -33 -8 -64 -9 -31 0 -75 -4
-97 -9 -28 -5 -37 -4 -30 3 6 6 21 12 35 15 43 7 164 7 156 0z m-126 -53 c0
-5 -16 -10 -35 -10 -19 0 -35 5 -35 10 0 6 16 10 35 10 19 0 35 -4 35 -10z
m113 3 c-13 -2 -33 -2 -45 0 -13 2 -3 4 22 4 25 0 35 -2 23 -4z"/>
<path d="M1440 1885 c-6 -8 -9 -23 -5 -35 8 -24 -10 -84 -36 -122 -24 -33 -24
-54 0 -61 10 -2 32 -25 49 -50 l32 -45 -36 -32 c-20 -17 -47 -36 -60 -42 -13
-6 -24 -16 -24 -21 0 -15 76 -1 122 23 l41 21 60 -60 c39 -39 70 -61 84 -61
18 0 80 34 102 55 2 3 -13 12 -33 20 -57 24 -145 85 -151 106 -4 11 5 34 21
58 16 25 25 49 22 64 -4 20 -1 23 17 19 15 -2 30 6 49 28 15 18 25 34 23 37
-8 7 -182 4 -202 -3 -15 -6 -17 -4 -10 12 17 42 17 65 0 84 -21 24 -48 26 -65
5z m115 -155 c3 -6 -4 -28 -16 -50 l-23 -40 -33 32 c-18 17 -33 36 -33 40 0
22 93 37 105 18z"/>
<path d="M2715 1831 c-35 -5 -40 -9 -37 -31 4 -36 11 -39 72 -26 63 13 79 39
35 56 -15 6 -27 9 -28 9 -1 -1 -20 -5 -42 -8z"/>
<path d="M3081 1673 c2 -75 11 -98 39 -98 24 0 25 2 21 65 -3 65 -11 80 -43
80 -15 0 -18 -8 -17 -47z"/>
<path d="M2267 1527 c-6 -15 14 -36 95 -100 58 -46 88 -49 88 -8 0 23 -11 38
-51 70 -29 23 -62 41 -74 41 -13 0 -30 3 -38 6 -8 3 -17 -1 -20 -9z"/>
<path d="M1088 1256 c-36 -18 -31 -58 10 -75 39 -18 37 -35 -6 -39 -42 -4 -31
-22 12 -22 37 0 61 21 52 45 -3 8 -21 25 -41 36 -40 24 -38 39 6 39 16 0 29 4
29 9 0 15 -37 19 -62 7z"/>
<path d="M2664 1260 c-46 -18 -42 -62 7 -79 36 -13 34 -35 -4 -39 -39 -5 -33
-22 7 -22 63 0 76 54 18 79 -40 18 -37 34 9 41 33 5 33 6 12 18 -12 6 -23 12
-25 11 -2 0 -13 -4 -24 -9z"/>
<path d="M4025 1245 c-47 -46 -21 -133 36 -121 15 3 31 1 34 -4 12 -20 25 2
25 40 0 45 -5 50 -43 43 -29 -6 -38 -23 -11 -23 9 0 14 -6 12 -12 -3 -7 -13
-13 -24 -13 -13 0 -20 8 -22 28 -5 38 15 60 50 55 30 -5 35 1 16 20 -19 19
-47 14 -73 -13z"/>
<path d="M1240 1190 c0 -56 3 -70 15 -70 10 0 15 10 15 30 0 27 3 30 30 30 27
0 30 -3 30 -30 0 -20 5 -30 15 -30 12 0 15 14 15 70 0 56 -3 70 -15 70 -9 0
-15 -9 -15 -25 0 -21 -5 -25 -30 -25 -25 0 -30 4 -30 25 0 16 -6 25 -15 25
-12 0 -15 -14 -15 -70z"/>
<path d="M1450 1202 c0 -32 5 -63 12 -70 15 -15 55 -16 64 -1 4 8 9 8 17 0 25
-25 32 -10 29 59 -4 82 -26 98 -36 26 -14 -92 -56 -100 -56 -10 0 41 -4 54
-15 54 -12 0 -15 -13 -15 -58z"/>
<path d="M1790 1190 l0 -70 33 0 c61 0 101 55 75 105 -15 28 -28 35 -70 35
l-38 0 0 -70z m78 3 c-2 -31 -7 -39 -25 -41 -21 -3 -23 1 -23 37 0 37 2 41 26
41 23 0 25 -3 22 -37z"/>
<path d="M1990 1190 c0 -91 17 -91 22 0 2 51 0 70 -9 70 -9 0 -13 -21 -13 -70z"/>
<path d="M2117 1195 c-15 -36 -27 -68 -27 -70 0 -12 22 -3 40 15 11 11 26 20
34 20 8 0 18 -9 21 -20 4 -11 15 -20 26 -20 17 0 18 3 9 20 -6 11 -8 25 -5 30
3 6 2 10 -3 10 -5 0 -16 18 -25 40 -8 22 -22 40 -29 40 -8 0 -26 -29 -41 -65z
m53 -6 c0 -5 -7 -9 -15 -9 -9 0 -12 6 -9 15 6 15 24 11 24 -6z"/>
<path d="M2300 1190 c0 -54 3 -70 14 -70 11 0 16 14 18 48 l3 47 28 -52 c41
-78 51 -73 62 30 6 58 5 67 -9 67 -12 0 -16 -9 -16 -34 0 -50 -14 -52 -35 -6
-14 30 -24 40 -42 40 -22 0 -23 -3 -23 -70z"/>
<path d="M2820 1190 c0 -56 3 -70 15 -70 10 0 15 10 15 30 0 27 3 30 30 30 27
0 30 -3 30 -30 0 -20 5 -30 15 -30 12 0 15 14 15 70 0 56 -3 70 -15 70 -9 0
-15 -9 -15 -25 0 -21 -5 -25 -30 -25 -25 0 -30 4 -30 25 0 16 -6 25 -15 25
-12 0 -15 -14 -15 -70z"/>
<path d="M3030 1202 c0 -32 5 -63 12 -70 16 -16 55 -15 62 1 5 10 7 10 12 0 3
-7 12 -13 20 -13 11 0 14 16 14 70 0 53 -3 70 -14 70 -8 0 -17 -15 -21 -37 -8
-45 -32 -86 -45 -78 -6 4 -10 31 -10 61 0 41 -4 54 -15 54 -12 0 -15 -13 -15
-58z"/>
<path d="M3370 1200 c0 -48 -3 -60 -16 -60 -23 0 -11 -24 14 -28 21 -3 22 0
22 72 0 44 -4 76 -10 76 -6 0 -10 -27 -10 -60z"/>
<path d="M3480 1190 c0 -91 17 -91 22 0 2 51 0 70 -9 70 -9 0 -13 -21 -13 -70z"/>
<path d="M3607 1195 c-15 -36 -27 -68 -27 -70 0 -12 22 -3 40 15 11 11 26 20
34 20 8 0 18 -9 21 -20 4 -11 15 -20 26 -20 17 0 18 3 9 20 -6 11 -8 25 -5 30
3 6 2 10 -3 10 -5 0 -16 18 -25 40 -8 22 -22 40 -29 40 -8 0 -26 -29 -41 -65z
m53 -6 c0 -5 -7 -9 -15 -9 -9 0 -12 6 -9 15 6 15 24 11 24 -6z"/>
<path d="M3790 1190 c0 -54 3 -70 14 -70 11 0 16 14 18 48 l3 47 28 -52 c41
-78 51 -73 62 30 6 58 5 67 -9 67 -12 0 -16 -9 -16 -34 0 -50 -14 -52 -35 -6
-14 30 -24 40 -42 40 -22 0 -23 -3 -23 -70z"/>
</g>
</svg>
